<svg xmlns="http://www.w3.org/2000/svg" xmlns:xlink="http://www.w3.org/1999/xlink" width="385.573" height="456.074" viewBox="0 0 385.573 456.074"><defs><linearGradient id="a" x1="0.245" y1="-1.625" x2="0.5" y2="1" gradientUnits="objectBoundingBox"><stop offset="0" stop-color="#b5ffd2"/><stop offset="1" stop-color="#055c25"/></linearGradient><linearGradient id="b" x1="0.374" y1="0.345" x2="0.5" y2="1" gradientUnits="objectBoundingBox"><stop offset="0" stop-color="#06d251"/><stop offset="1" stop-color="#0b5225"/></linearGradient></defs><g transform="translate(-74.301 -35.669)"><rect width="279.064" height="388.872" transform="matrix(0.951, 0.309, -0.309, 0.951, 194.469, 35.669)" fill="#0f7033"/><rect width="271.938" height="392.653" transform="matrix(0.966, 0.259, -0.259, 0.966, 182.528, 37.814)" fill="url(#a)"/><rect width="287" height="393" transform="translate(113 66)" fill="#bbffc4"/><rect width="131" height="126" rx="18" transform="translate(191 200)" fill="#fff"/><rect width="90" height="79" rx="11" transform="translate(211 224)" fill="#bbffc4"/><path d="M55.292,116.91,10.239,85.363a12.5,12.5,0,1,1,14.34-20.479L62.116,91.168l111-83.645a12.5,12.5,0,1,1,15.045,19.966L71.139,115.672a12.5,12.5,0,0,1-15.847,1.238Z" transform="translate(192.597 176.828)" fill="url(#b)"/></g></svg>